<?xml version="1.0" encoding="utf-8"?>
<!-- Generator: Adobe Illustrator 24.1.2, SVG Export Plug-In . SVG Version: 6.00 Build 0)  -->
<svg version="1.1" id="Layer_1" xmlns="http://www.w3.org/2000/svg" xmlns:xlink="http://www.w3.org/1999/xlink" x="0px" y="0px"
	 viewBox="0 0 36 72" style="enable-background:new 0 0 36 72;" xml:space="preserve">
<path d="M7.8,49l0.2,1.4L7.8,49z"/>
<path d="M6.3,10.6v0.2l0,0L6,8.9H5.4l0.2,3.2l0,0l-0.3,0.3H5.2c-0.2-0.3-0.4-0.5-0.7-0.7H3.7c-0.1,0.1-0.2,0.2-0.2,0.4h0.3l0.5,0.2
	c0.4,0.3,0.7,0.7,1,1.1c0.3,0.6,0.6,1.1,0.8,1.7l0,0l-0.3,6.7H5.6 M17.3,53.2v0.3c0.1,0.4,0,0.8-0.1,1.3l0,0
	c-0.2,1.2-0.4,2.4-0.4,3.6c-0.1,1.4,0,2.8,0.1,4.2l0,0v3.1h-0.1v0.6h-0.3v0.4l0,0c-0.1,0.3-0.2,0.6-0.3,0.9c0,0.3,0.1,0.7,0.2,1l0,0
	c0.1,0.2,0.1,0.5,0.1,0.8l0,0c-0.1,0.2-0.1,0.4-0.2,0.6c-0.1,0.2-0.1,0.3-0.1,0.4c0,0.2,0.1,0.3,0.1,0.5h0.1l1,0.3h0.7
	c0,0.1,0,0.1,0.1,0.1l0,0l2,0.4h0.6c0.4,0.1,0.8-0.1,1.1-0.4c0.3-0.3,0.2-1-0.1-1.4l-0.2-0.2L21,68.9l-0.5-0.3
	c-0.3-0.4-0.5-0.7-0.7-1.2c-0.1-0.2-0.1-0.5-0.2-0.7l0,0c0.1-0.4,0.1-0.8,0.1-1.2c0-0.3-0.1-0.5-0.2-0.8l0,0l0.5-2.4l0,0
	c0.4-1.9,0.8-3.9,1-5.4c0.1-1.1,0.2-2.3,0.2-3.4l0,0c0-0.6-0.1-1.2-0.2-1.8l0,0l3.2-0.2l0,0l-0.9-17l0,0c0.2-0.1,0.4-0.1,0.5-0.4
	c0.1-0.4,0-0.8-0.1-1.3l0,0c0.2-0.6,0.2-1.2,0-1.7c-0.1-0.3-0.2-0.8-0.4-1.3c-0.2-0.7-0.4-1.3-0.5-2c-0.2-0.9-0.3-1.7-0.1-2.6
	c0.1-0.4,0.1-0.8,0.1-1.3l0,0c0.2,0.6,0.4,1.1,0.5,1.7v0.6c0,0.5,0,1,0.1,1.4c0.3,1.1,0.6,2.2,1,3.3c0.1,0.3,0.2,0.7,0.4,1l0.3,0.7
	c0.1,0.2,0.2,0.4,0.2,0.6c0.2,0.4,0.4,0.9,0.6,1.4l0,0c0.1,0.5,0.2,1.1,0.1,1.6c0,0.3-0.1,0.6-0.3,0.9l0,0c-0.2,0.2-0.4,0.5-0.5,0.8
	v1c0.1,0.2,0,0.4,0,0.6h-0.3c-0.1,0.5-0.3,1-0.3,1.2l0,0c0.1,0.2,0.2,0.2,0.3,0.2H25c0.2-0.1,0.5-0.2,0.6-0.4
	c0.1-0.2,0.1-0.4,0.1-0.6l0,0c0-0.2,0.1-0.4,0.1-0.6h0.2l0.3,0.2c0.1,0.3,0.1,0.7,0,1c0,0.2,0,0.3-0.1,0.5l0,0L25.3,42h-0.1
	c-0.2,0.1-0.3,0.4-0.3,0.6c0,0.1,0.1,0.2,0.2,0.2c0,0,0,0,0,0c0,0.1,0,0.1,0.1,0.1l0,0l1.6-1.4l0,0l0.3-0.5c0.1-0.1,0.1-0.2,0.1-0.3
	c0-0.1,0.1-0.1,0.1-0.2v-0.2c0.1-0.2,0.1-0.3,0.2-0.3l0,0c0-0.2,0.1-0.4,0.1-0.7c0-0.5,0-1,0-1.4l0,0l-0.2-2.2l0,0v-1.4l0,0
	c-0.1-0.8-0.2-1.5-0.3-2.7v-0.3c0-0.1-0.1-0.2-0.1-0.3S26.9,29,26.7,28c-0.2-0.8-0.4-1.6-0.7-2.3c-0.1-0.2-0.2-0.3-0.2-0.4
	c0-0.1,0-0.1-0.1-0.1l0,0c0-0.7,0-1.4-0.1-2.1h-0.1c0-0.4-0.1-0.7-0.2-1.1c0-0.3-0.1-0.5-0.1-0.8c-0.1-0.3-0.1-0.7-0.1-1.1l0,0
	c-0.1-1.3-0.3-2.6-0.6-3.9c-0.1-0.6-0.6-1.1-1.2-1.4l0,0v-0.7H22l-1.1-0.2l0,0l-0.6-0.3l-0.5-0.2L18.7,13l0,0
	c-0.1-0.1-0.2-0.3-0.3-0.5c-0.1-0.6-0.1-1.2-0.1-1.8l0,0c0-0.2,0.1-0.3,0.2-0.5V9.6h0.2l0.2-0.2C19.2,9,19.4,8.5,19.5,8
	c0.1-0.3,0-0.6-0.2-0.8h-0.1c-0.1,0-0.2,0-0.2,0.1l0,0c0.1-0.5,0.2-1.1,0.3-1.6c0.1-0.5,0-1-0.2-1.4c-0.3-0.7-0.8-1.3-1.4-1.6
	l-0.6-0.3h-0.6c-0.4,0-0.7,0-1.1,0.2c-0.9,0.2-1.7,0.8-2.1,1.6C13,5,13,6,13.3,6.9H13c-0.1,0-0.2,0-0.2,0.2c-0.1,0.4-0.1,0.9,0,1.4
	c0.1,0.3,0.2,0.5,0.4,0.7h0.1c0,0.4,0,0.7,0.1,1.1c0.1,0.3,0.2,0.5,0.4,0.8l0,0v1.3c-0.1,0.4-0.1,0.7-0.2,1h-0.2
	c-0.4,0.1-0.8,0.3-1.1,0.6l-1.6,1.1l0,0L9.2,15l0,0c-0.2,0.2-0.3,0.4-0.4,0.7c-0.1,0.3-0.3,0.5-0.5,0.7l0,0v-1.1l0,0
	c0.2-0.4,0.4-0.8,0.5-1.2c0.1-0.5,0.1-1,0.1-1.5l0,0c0.4-0.3,0.6-0.7,0.9-1.1C10,11.2,10,11,9.9,10.9c-0.1,0-0.1,0-0.1-0.1H9.6
	l-0.7,0.9L8.5,12l0,0L8,11.8l0,0l0.3-0.4h0.3l0.2-0.2c0.1-0.3,0-0.6-0.1-0.9H8c-0.2,0.3-0.4,0.6-0.6,0.9l0,0C7.3,11.1,7.1,11,7,10.8
	c-0.1-0.2,0-0.5,0-0.7h0.1V9.8h0.3l0.3-0.2l0,0c0-0.1,0-0.1-0.1-0.1l0,0c0-0.2-0.2-0.4-0.4-0.6H7.1c-0.3,0.4-0.6,0.8-0.9,1.3l0,0
	L5.6,21.9c-0.1,0.6,0,1.3,0.1,1.9l0,0c0.1,0.2,0.2,0.4,0.3,0.6c0.1,0.2,0.2,0.4,0.2,0.6c0.1,0.1,0.1,0.2,0.1,0.3
	c0.1,0.4,0.2,0.9,0.6,1.1l0.7,0.2l0.8-0.2c0.2,0,0.4-0.1,0.5-0.3c0.3-0.3,0.5-0.7,0.6-1.2c0-0.2,0.1-0.3,0.1-0.4v-0.3
	c0.1-0.3,0.2-0.6,0.4-0.9l0,0l-0.7,6.1l0,0C9,30.1,8.9,30.8,9,31.4c0,0.6,0,1.2-0.1,1.7l0,0v1.4l0,0l0.2,0.2l0,0l-0.3,0.7
	c-0.1,0.4-0.2,0.9-0.6,2.9l0,0l-1.4,8.8l0,0v0.6l-0.7,3.7l0,0l1,0.2l0,0C6.4,52.7,6,54,5.7,55.3c-0.3,2.1-0.4,4.3-0.5,6.5l0,0v3.6
	l0,0C5,65.5,4.8,65.7,4.8,66c-0.2,0.4-0.2,0.8-0.2,1.3l0,0V68l0,0c-0.1,0.3-0.3,0.6-0.5,0.9l-0.3,0.4l-0.4,0.5
	c-0.1,0.3-0.2,0.6-0.2,1c0,0.3,0,0.5,0.2,0.6l0.9,0.2h2.6c0.3,0,0.5-0.3,0.5-0.6l0,0v-0.6c0-0.2,0-0.4-0.1-0.6l0,0
	c0.3-0.7,0.5-1.5,0.6-2.2c0.1-0.3,0-0.6-0.2-0.9l0,0c0-0.5,0.1-1.1,0.1-1.3S7.6,65,7.5,65l0,0l1.4-4.5l0,0c0.3-0.9,0.6-1.8,0.8-2.7
	c0.2-1.2,0.4-2.6,0.5-4.1l0,0c0.1-0.1,0.1-0.3,0.2-0.4l0.2-0.2l0.2-0.2c0.1-0.2,0.2-0.4,0.3-0.6h2.7c0.3-0.1,0.6-0.2,0.9-0.4h0.1
	c0.1-0.2,0.3-0.3,0.5-0.4l0,0c0-0.4,0.1-0.8,0.2-1.5c0.1-0.8,0.5-1.8,0.7-2.9l0,0l0.5,2.9c0.1,0.8,0,1-0.1,1.2l0,0l0.4,0.3h0.2
	c0,0.4,0.1,0.7,0.2,1.1 M8.2,10.2L8.2,10.2z M8.9,33.1v1.4l0.2,0.2l-0.2-0.2l0,0V33.1z M25.7,39.4L25.7,39.4z M26.7,41.8l-0.9,0.7
	L25.2,43l0,0l0.7-0.6L26.7,41.8z M16.3,50.6l0.3,0.4l0,0L16.3,50.6z M6.7,47.6L6,51.3l0,0L6.7,47.6z M23,34.6l0.8,17l0,0l-3.1,0.2
	l3.1-0.2l0,0L23,34.6z M10.8,52L10.8,52z M16.6,65.1L16.6,65.1z M5.5,71.5L5.5,71.5z"/>
<circle cx="5.7" cy="4.7" r="4.4"/>
</svg>
